<svg id="Layer_1" data-name="Layer 1" xmlns="http://www.w3.org/2000/svg" viewBox="0 0 960 290"><defs><style>.cls-1{fill:#034a6d;}.cls-2{fill:#fff;}.cls-3{fill:#e7e7e7;}.cls-4{fill:#bdbfc1;}.cls-5{fill:#005eb8;}.cls-6{fill:#e2f4fd;}.cls-7{fill:#ed8b00;}.cls-8{fill:#70bef2;}.cls-9{fill:#9ad9fc;}.cls-10{fill:#fbb040;}.cls-11{fill:#1f5686;}.cls-12{fill:#2d2d2d;}.cls-13{fill:#acd9fc;}.cls-14{fill:#056cdd;}.cls-15{fill:#efefef;}.cls-16{fill:#fafafa;}</style></defs><g id="_Group_6" data-name=" Group 6"><path id="_Path_4" data-name=" Path 4" class="cls-1" d="M319.89.51a8,8,0,0,0-8,8h0V210.67a8.14,8.14,0,0,0,8,8.13H633.25a8,8,0,0,0,8-8h0V8.63a8,8,0,0,0-8-8h0L319.89.51Z"/><polygon class="cls-2" points="326.46 204.15 326.46 15.15 626.67 15.26 626.67 204.15 326.46 204.15"/><path id="_Path_5" data-name=" Path 5" class="cls-3" d="M293.57,235H659a17.59,17.59,0,0,0,17.51-17.5H276.3A17.38,17.38,0,0,0,293.57,235Z"/><path id="_Path_6" data-name=" Path 6" class="cls-4" d="M279,226.92a16.83,16.83,0,0,0,14.53,8H659a16.31,16.31,0,0,0,14.53-8Z"/><circle id="_Path_7" data-name=" Path 7" class="cls-1" cx="307.76" cy="222" r="1.94"/><circle id="_Path_8" data-name=" Path 8" class="cls-1" cx="302.61" cy="222" r="1.94"/><circle id="_Path_9" data-name=" Path 9" class="cls-1" cx="297" cy="222" r="1.94"/></g><rect class="cls-5" x="326.29" y="14.53" width="301.01" height="17.39"/><circle class="cls-2" cx="340.02" cy="23.34" r="3.78"/><circle class="cls-2" cx="352.38" cy="23.34" r="3.78"/><circle class="cls-2" cx="364.85" cy="23.34" r="3.78"/><rect class="cls-5" x="346.54" y="54.45" width="196.21" height="9.95"/><circle class="cls-5" cx="575.36" cy="42.9" r="2.52"/><circle class="cls-6" cx="565.41" cy="42.9" r="2.52"/><circle class="cls-7" cx="585.31" cy="42.9" r="2.52"/><rect class="cls-8" x="346.54" y="110.97" width="53.66" height="24.83"/><rect class="cls-9" x="346.54" y="101.02" width="74.82" height="4.92"/><rect class="cls-6" x="409.7" y="111.2" width="126.76" height="24.71"/><path class="cls-10" d="M534.63,141.4H507.52a1.82,1.82,0,0,0-1.84,1.84V148a1.81,1.81,0,0,0,1.84,1.83h27.11a1.81,1.81,0,0,0,1.83-1.83v-4.8A1.81,1.81,0,0,0,534.63,141.4Z"/><circle class="cls-9" cx="526.51" cy="103.54" r="2.52"/><circle class="cls-9" cx="519.07" cy="103.54" r="2.52"/><circle class="cls-9" cx="533.94" cy="103.54" r="2.52"/><rect class="cls-9" x="346.54" y="154.79" width="74.82" height="4.92"/><rect class="cls-6" x="409.7" y="164.74" width="126.76" height="24.83"/><path class="cls-10" d="M534.63,193.23H507.52a1.81,1.81,0,0,0-1.84,1.83v4.81a1.81,1.81,0,0,0,1.84,1.83h27.11a1.81,1.81,0,0,0,1.83-1.83v-4.81A1.81,1.81,0,0,0,534.63,193.23Z"/><circle class="cls-9" cx="526.51" cy="157.31" r="2.52"/><circle class="cls-9" cx="519.07" cy="157.31" r="2.52"/><circle class="cls-9" cx="533.94" cy="157.31" r="2.52"/><rect class="cls-10" x="346.54" y="164.63" width="53.66" height="24.83"/><path class="cls-7" d="M379.49,182.93H367.37a1.76,1.76,0,0,1-1.72-1.71V173a1.76,1.76,0,0,1,1.72-1.71h12.12a1.76,1.76,0,0,1,1.72,1.71v8.24A1.76,1.76,0,0,1,379.49,182.93Z"/><polygon class="cls-2" points="371.83 174.35 375.95 176.99 371.83 179.73 371.83 174.35"/><rect class="cls-11" x="346.43" y="74.48" width="263.37" height="14.87"/><rect class="cls-2" x="362.33" y="79.74" width="14.87" height="4.35"/><rect class="cls-2" x="387.27" y="79.74" width="14.87" height="4.35"/><rect class="cls-2" x="412.1" y="79.74" width="14.87" height="4.35"/><rect class="cls-2" x="436.93" y="79.74" width="14.87" height="4.35"/><rect class="cls-2" x="461.87" y="79.74" width="14.87" height="4.35"/><rect class="cls-2" x="486.69" y="79.74" width="14.87" height="4.35"/><rect class="cls-2" x="511.63" y="79.74" width="14.87" height="4.35"/><rect class="cls-5" x="346.2" y="40.95" width="15.22" height="4.35"/><rect class="cls-9" x="421.14" y="40.95" width="15.22" height="4.35"/><rect class="cls-9" x="396.31" y="40.95" width="15.22" height="4.35"/><rect class="cls-9" x="371.48" y="40.95" width="15.22" height="4.35"/><rect class="cls-6" x="549.96" y="54.45" width="50.91" height="9.95"/><rect class="cls-5" x="599.96" y="54.45" width="9.95" height="9.95"/><rect class="cls-6" x="549.73" y="101.02" width="60.06" height="10.07"/><rect class="cls-9" x="564.83" y="116.58" width="45.08" height="2.52"/><rect class="cls-6" x="564.83" y="124.01" width="39.81" height="2.52"/><rect class="cls-9" x="564.83" y="132.02" width="39.59" height="2.52"/><rect class="cls-6" x="564.83" y="139.46" width="35.24" height="2.52"/><rect class="cls-9" x="564.83" y="146.9" width="43.02" height="2.52"/><rect class="cls-6" x="564.83" y="154.33" width="37.98" height="2.52"/><rect class="cls-9" x="564.83" y="162.34" width="39.36" height="2.52"/><rect class="cls-6" x="564.83" y="169.78" width="36.72" height="2.52"/><rect class="cls-6" x="549.62" y="116.58" width="9.95" height="9.95"/><rect class="cls-6" x="549.62" y="131.79" width="9.95" height="9.95"/><rect class="cls-6" x="549.62" y="146.78" width="9.95" height="9.95"/><rect class="cls-6" x="549.62" y="162.34" width="9.95" height="9.95"/><rect class="cls-9" x="564.83" y="178.24" width="43.02" height="2.52"/><rect class="cls-6" x="564.83" y="185.68" width="37.98" height="2.52"/><rect class="cls-9" x="564.83" y="193.69" width="39.36" height="2.52"/><rect class="cls-6" x="564.83" y="201.13" width="36.72" height="2.52"/><rect class="cls-6" x="549.62" y="178.13" width="9.95" height="9.95"/><rect class="cls-6" x="549.62" y="193.69" width="9.95" height="9.95"/><circle class="cls-7" cx="603.16" cy="42.9" r="6.75"/><circle class="cls-2" cx="603.16" cy="40.27" r="2.17"/><path class="cls-2" d="M603.16,47.7a4.93,4.93,0,0,0,4.23-2.51,4.46,4.46,0,0,0-3.77-1.95h-.92a4.75,4.75,0,0,0-3.77,1.95A5.08,5.08,0,0,0,603.16,47.7Z"/><path class="cls-12" d="M675.69,289.73H550.19a8,8,0,0,1-8-8V96.26a8,8,0,0,1,8-8h125.5a8,8,0,0,1,8,8V281.72A8,8,0,0,1,675.69,289.73Z"/><rect class="cls-2" x="550.76" y="102.79" width="124.59" height="166.69"/><path class="cls-4" d="M617.35,280.92a4.46,4.46,0,0,0-5.27-5.26,4.68,4.68,0,0,0-3.54,3.54,4.46,4.46,0,0,0,5.26,5.27A4.27,4.27,0,0,0,617.35,280.92Z"/><circle class="cls-4" cx="613" cy="95.81" r="2.29"/><rect class="cls-5" x="550.76" y="102.56" width="124.59" height="9.15"/><circle class="cls-2" cx="557.97" cy="107.13" r="1.94"/><circle class="cls-2" cx="564.49" cy="107.13" r="1.94"/><circle class="cls-2" cx="571.01" cy="107.13" r="1.94"/><path class="cls-6" d="M664.14,138.37H650a.89.89,0,0,0-.91.91v2.52a.9.9,0,0,0,.91.91h14.19a.89.89,0,0,0,.91-.91v-2.52A1,1,0,0,0,664.14,138.37Z"/><rect class="cls-5" x="560.94" y="138.37" width="22.42" height="22.42"/><rect class="cls-5" x="589.43" y="151.18" width="75.62" height="9.61"/><rect class="cls-6" x="560.94" y="122.58" width="47.36" height="5.26"/><rect class="cls-9" x="589.43" y="138.37" width="35.58" height="4.35"/><rect class="cls-9" x="560.94" y="166.63" width="22.42" height="4.35"/><rect class="cls-6" x="635.77" y="166.28" width="29.4" height="31.81"/><rect class="cls-9" x="611.63" y="214.91" width="31.92" height="4.35"/><circle class="cls-5" cx="641.83" cy="125.67" r="4.46"/><circle class="cls-5" cx="624.1" cy="125.67" r="4.46"/><circle class="cls-7" cx="644.92" cy="122.58" r="2.17"/><circle class="cls-5" cx="659.56" cy="125.67" r="4.46"/><circle class="cls-7" cx="662.65" cy="122.58" r="2.17"/><rect class="cls-5" x="600.41" y="203.12" width="19.79" height="4.46"/><rect class="cls-6" x="624.33" y="203.12" width="19.79" height="4.46"/><path class="cls-5" d="M595,208.5h-4.46a1,1,0,0,1-1-1V203a1,1,0,0,1,1-1H595a1,1,0,0,1,1,1v4.46A1,1,0,0,1,595,208.5Z"/><path class="cls-2" d="M574.44,147.75v7.43h3.66V142.71a.48.48,0,0,0-.45-.45h-5.49a.49.49,0,0,0-.46.45v3.78h1.37A1.22,1.22,0,0,1,574.44,147.75Z"/><path class="cls-2" d="M579,156.1H565.18a.49.49,0,0,0-.46.46.49.49,0,0,0,.46.45H579a.49.49,0,0,0,.46-.45A.49.49,0,0,0,579,156.1Z"/><path class="cls-2" d="M573.53,155.18v-7.43a.49.49,0,0,0-.46-.46h-6.52a.49.49,0,0,0-.46.46v7.43h2.29V153.7a.49.49,0,0,1,.46-.46h1.83a.49.49,0,0,1,.46.46v1.48Z"/><rect class="cls-7" x="589.43" y="215.93" width="17.39" height="17.39"/><path class="cls-2" d="M602.36,229.55h-.69v-9a.3.3,0,0,0-.34-.34h-2.75v-.92a.3.3,0,0,0-.34-.34h-2.52a.3.3,0,0,0-.34.34v.92H595a.31.31,0,0,0-.35.34v9H594a.31.31,0,0,0-.35.34.31.31,0,0,0,.35.35h2.63a.26.26,0,0,0,.23-.23V228h-.12a.31.31,0,0,1-.34-.35.3.3,0,0,1,.34-.34H600a.3.3,0,0,1,.34.34.31.31,0,0,1-.34.35h-.12V230a.26.26,0,0,0,.23.23h2.63a.37.37,0,0,0,.35-.35c-.35-.11-.46-.34-.69-.34Z"/><rect class="cls-8" x="599.84" y="240.99" width="17.39" height="17.39"/><path class="cls-2" d="M614,245.68l-4.69-1.37c-.12,0-.23,0-.23.11s-.12.12-.12.23v11h5a.3.3,0,0,0,.34-.34v-9.38C614.26,245.91,614.14,245.8,614,245.68Zm-.8,7.67a.31.31,0,0,1-.35.34h-2.63a.3.3,0,0,1-.34-.34v-4a.3.3,0,0,1,.34-.34h2.63a.31.31,0,0,1,.35.34Z"/><path class="cls-2" d="M604,252.43h4.35v-1.37H604a.3.3,0,0,0-.34.34v.69A.36.36,0,0,0,604,252.43Z"/><path class="cls-2" d="M608.19,253.12h-4v2.63h4Z"/><rect class="cls-9" x="621.92" y="240.99" width="31.92" height="4.35"/><rect class="cls-6" x="621.92" y="248.66" width="42.45" height="9.84"/><rect class="cls-13" x="589.55" y="166.28" width="40.96" height="31.58"/><rect class="cls-7" x="605.1" y="185.73" width="11.1" height="12.13"/><path class="cls-10" d="M619.63,166.28H616.2V173l-6.75-6.75h-7.78v4.58H589.55v3.43h12.24v14.76H589.55v2.52h0c0,.34.11.68.11.91h12.13v5.38h3.43V185.73h11.1v12.13h3.43v-5.61l5.72,5.72h5.15l-10.76-10.52V179h10.76v-3.43H619.86l-.23-9.27Zm-3.43,16H605.1V166.85L616.2,178v4.35Z"/><polygon class="cls-7" points="619.63 166.28 619.63 175.44 630.5 175.44 630.5 166.28 625.01 166.28 619.63 166.28"/><rect class="cls-7" x="589.55" y="174.29" width="12.24" height="14.76"/><rect class="cls-9" x="560.94" y="214.91" width="22.42" height="4.35"/><rect class="cls-6" x="560.94" y="224.4" width="9.72" height="9.72"/><rect class="cls-9" x="573.07" y="224.4" width="9.72" height="9.72"/><rect class="cls-9" x="560.94" y="236.53" width="9.72" height="9.72"/><rect class="cls-11" x="573.07" y="236.53" width="9.72" height="9.72"/><rect class="cls-7" x="560.94" y="248.66" width="9.72" height="9.72"/><rect class="cls-6" x="573.07" y="248.66" width="9.72" height="9.72"/><rect class="cls-6" x="611.63" y="223.49" width="53.43" height="9.84"/><polyline class="cls-6" points="583.37 175.66 583.37 197.86 560.94 197.86 560.94 175.66"/><path class="cls-8" d="M803.05,230.63a3.83,3.83,0,0,1-.6,2.12,4,4,0,0,1-1.75,1.44,6.54,6.54,0,0,1-2.68.51,10.79,10.79,0,0,1-2.15-.18,8.52,8.52,0,0,1-1.82-.62v-3.1a10.42,10.42,0,0,0,2.07.8,7.66,7.66,0,0,0,2,.28,1.9,1.9,0,0,0,1.13-.27.84.84,0,0,0,.22-1.15,1.8,1.8,0,0,0-.47-.4,18.49,18.49,0,0,0-1.71-.82,8,8,0,0,1-1.88-1.11,3.4,3.4,0,0,1-.93-1.23,3.93,3.93,0,0,1-.31-1.64,3.29,3.29,0,0,1,1.29-2.77,5.72,5.72,0,0,1,3.55-1,9.89,9.89,0,0,1,4.07.93L802,225.1a7.73,7.73,0,0,0-3.11-.83,1.64,1.64,0,0,0-1,.24.72.72,0,0,0-.3.59.83.83,0,0,0,.39.67,14.16,14.16,0,0,0,2.12,1.09,5.9,5.9,0,0,1,2.31,1.61A3.48,3.48,0,0,1,803.05,230.63Z"/><path class="cls-8" d="M810.71,234.53h-3.47v-10H804.1v-2.84h9.74v2.84h-3.13Z"/><path class="cls-8" d="M819.15,229.85v4.68h-3.47V221.68h4.2c3.5,0,5.24,1.26,5.24,3.8a3.78,3.78,0,0,1-2.18,3.45l3.75,5.6h-3.94L820,229.85Zm0-2.61h.65c1.21,0,1.82-.53,1.82-1.61,0-.88-.6-1.32-1.79-1.32h-.68Z"/><path class="cls-8" d="M835.49,234.53h-7.63V221.68h7.63v2.78h-4.16v2h3.85v2.78h-3.85v2.43h4.16Z"/><path class="cls-8" d="M845.62,234.53l-.63-2.41h-4.18l-.65,2.41h-3.81l4.19-12.9h4.63l4.25,12.9Zm-1.35-5.26-.56-2.11c-.13-.47-.28-1.07-.47-1.82s-.3-1.27-.36-1.6c-.06.3-.16.8-.31,1.48s-.5,2-1,4.05Z"/><path class="cls-8" d="M856.4,234.53l-2.62-9.26h-.08c.12,1.58.18,2.8.18,3.68v5.58H850.8V221.68h4.63l2.68,9.12h.07l2.63-9.12h4.63v12.85h-3.19v-5.64c0-.29,0-.61,0-1s0-1.23.12-2.63h-.08l-2.59,9.24Z"/><path class="cls-8" d="M868.21,234.53V221.68h3.47v10h5v2.81Z"/><path class="cls-8" d="M878.68,234.53V221.68h3.49v12.85Z"/><path class="cls-8" d="M897.19,234.53h-4.56l-4.69-9.05h-.08c.11,1.42.17,2.51.17,3.26v5.79H885V221.68h4.54l4.67,8.93h.05q-.12-2-.12-3.12v-5.81h3.1Z"/><path class="cls-8" d="M907.59,234.53H900V221.68h7.63v2.78h-4.16v2h3.85v2.78h-3.85v2.43h4.16Z"/><path class="cls-8" d="M920.75,227.83a6.64,6.64,0,0,1-1.77,5,6.8,6.8,0,0,1-5,1.74h-4.16V221.68h4.45a6.76,6.76,0,0,1,4.78,1.58A6,6,0,0,1,920.75,227.83Zm-3.61.12a4.14,4.14,0,0,0-.69-2.62,2.63,2.63,0,0,0-2.13-.85h-1v7.2h.78a2.82,2.82,0,0,0,2.32-.92A4.45,4.45,0,0,0,917.14,228Z"/><path class="cls-8" d="M800.37,245.94a2.21,2.21,0,0,0-1.93,1,4.91,4.91,0,0,0-.69,2.8q0,3.7,2.82,3.7a5.72,5.72,0,0,0,1.65-.23c.53-.16,1.07-.35,1.61-.57v2.93a8.82,8.82,0,0,1-3.64.71,5.76,5.76,0,0,1-4.46-1.68,6.94,6.94,0,0,1-1.55-4.88,7.82,7.82,0,0,1,.75-3.51,5.33,5.33,0,0,1,2.16-2.32,6.56,6.56,0,0,1,3.32-.82,9.17,9.17,0,0,1,4,.91l-1.06,2.73a12.07,12.07,0,0,0-1.43-.56A5,5,0,0,0,800.37,245.94Z"/><path class="cls-8" d="M818.36,249.69a6.94,6.94,0,0,1-1.59,4.93,7.26,7.26,0,0,1-9.3,0,6.93,6.93,0,0,1-1.61-4.94,6.85,6.85,0,0,1,1.6-4.9,7.29,7.29,0,0,1,9.31,0A6.94,6.94,0,0,1,818.36,249.69Zm-8.85,0q0,3.72,2.6,3.72a2.22,2.22,0,0,0,1.95-.9,4.94,4.94,0,0,0,.64-2.82,5,5,0,0,0-.65-2.85,2.2,2.2,0,0,0-1.92-.92Q809.51,245.92,809.51,249.69Z"/><path class="cls-8" d="M826.28,256.13l-2.63-9.26h-.08c.12,1.58.18,2.8.18,3.68v5.58h-3.07V243.28h4.62L828,252.4h.07l2.63-9.12h4.63v12.85h-3.19v-5.64c0-.29,0-.61,0-1s0-1.23.12-2.63h-.08l-2.59,9.24Z"/><path class="cls-8" d="M843.68,256.13l-2.63-9.26H841c.12,1.58.18,2.8.18,3.68v5.58h-3.07V243.28h4.62l2.68,9.12h.07l2.63-9.12h4.63v12.85h-3.19v-5.64c0-.29,0-.61,0-1s0-1.23.11-2.63h-.08L847,256.13Z"/><path class="cls-8" d="M866.41,243.28V251a5.2,5.2,0,0,1-1.43,3.91,5.7,5.7,0,0,1-4.12,1.38,5.62,5.62,0,0,1-4-1.34,5.11,5.11,0,0,1-1.41-3.87v-7.81h3.49v7.54a3.09,3.09,0,0,0,.51,2,2.21,2.21,0,0,0,3.05,0,3.34,3.34,0,0,0,.47-2v-7.52Z"/><path class="cls-8" d="M881.34,256.13h-4.55l-4.7-9H872c.12,1.42.17,2.51.17,3.26v5.79H869.1V243.28h4.54l4.67,8.93h.06c-.08-1.3-.13-2.34-.13-3.12v-5.81h3.1Z"/><path class="cls-8" d="M884.12,256.13V243.28h3.49v12.85Z"/><path class="cls-8" d="M896.1,245.94a2.21,2.21,0,0,0-1.93,1,4.91,4.91,0,0,0-.69,2.8q0,3.7,2.82,3.7a5.67,5.67,0,0,0,1.65-.23c.53-.16,1.07-.35,1.61-.57v2.93a8.82,8.82,0,0,1-3.64.71,5.76,5.76,0,0,1-4.46-1.68,6.94,6.94,0,0,1-1.55-4.88,7.82,7.82,0,0,1,.75-3.51,5.33,5.33,0,0,1,2.16-2.32,6.56,6.56,0,0,1,3.32-.82,9.17,9.17,0,0,1,4,.91l-1.06,2.73a12.07,12.07,0,0,0-1.43-.56A5,5,0,0,0,896.1,245.94Z"/><path class="cls-8" d="M910,256.13l-.64-2.41h-4.17l-.65,2.41h-3.82l4.2-12.9h4.63l4.24,12.9Zm-1.36-5.26-.55-2.11c-.13-.47-.29-1.07-.47-1.82s-.31-1.27-.36-1.6c-.06.3-.16.79-.32,1.48s-.5,2-1,4.05Z"/><path class="cls-8" d="M920.8,256.13h-3.47v-10h-3.14v-2.84h9.74v2.84H920.8Z"/><path class="cls-8" d="M925.77,256.13V243.28h3.49v12.85Z"/><path class="cls-8" d="M944.06,249.69a6.94,6.94,0,0,1-1.59,4.93,7.26,7.26,0,0,1-9.3,0,6.93,6.93,0,0,1-1.61-4.94,6.85,6.85,0,0,1,1.6-4.9,7.29,7.29,0,0,1,9.31,0A6.94,6.94,0,0,1,944.06,249.69Zm-8.85,0q0,3.72,2.6,3.72a2.22,2.22,0,0,0,2-.9,6.55,6.55,0,0,0,0-5.67,2.2,2.2,0,0,0-1.92-.92C936.09,245.92,935.21,247.18,935.21,249.69Z"/><path class="cls-8" d="M958.61,256.13h-4.55l-4.69-9h-.08c.11,1.42.16,2.51.16,3.26v5.79h-3.07V243.28h4.53l4.68,8.93h0q-.12-2-.12-3.12v-5.81h3.09Z"/><path class="cls-8" d="M729.48,79.74h-7.63V66.89h7.63v2.79h-4.16v2h3.85v2.78h-3.85v2.43h4.16Z"/><path class="cls-8" d="M744,79.74h-4.55l-4.7-9h-.08c.12,1.42.17,2.51.17,3.26v5.79h-3.07V66.89h4.53l4.68,8.93h0q-.12-1.95-.12-3.12V66.89H744Z"/><path class="cls-8" d="M757.75,79.74h-3.49V74.5h-4v5.24h-3.49V66.89h3.49v4.76h4V66.89h3.49Z"/><path class="cls-8" d="M768.41,79.74l-.63-2.41H763.6L763,79.74h-3.81l4.19-12.9H768l4.25,12.9Zm-1.35-5.26-.56-2.11c-.12-.47-.28-1.07-.47-1.82s-.3-1.27-.36-1.6c0,.3-.16.8-.31,1.48s-.5,2-1,4Z"/><path class="cls-8" d="M785.83,79.74h-4.55l-4.7-9h-.07c.11,1.42.16,2.51.16,3.26v5.79H773.6V66.89h4.53l4.68,8.93h.05q-.12-1.95-.12-3.12V66.89h3.09Z"/><path class="cls-8" d="M794.33,69.55a2.2,2.2,0,0,0-1.93,1,4.83,4.83,0,0,0-.7,2.8q0,3.7,2.82,3.71a5.8,5.8,0,0,0,1.66-.24c.53-.16,1.07-.35,1.6-.57V79.2a8.78,8.78,0,0,1-3.63.71,5.8,5.8,0,0,1-4.47-1.68,7,7,0,0,1-1.55-4.88,7.82,7.82,0,0,1,.75-3.51,5.41,5.41,0,0,1,2.17-2.32,6.54,6.54,0,0,1,3.32-.82,9.23,9.23,0,0,1,4,.91l-1.07,2.73a11.94,11.94,0,0,0-1.42-.56A5.05,5.05,0,0,0,794.33,69.55Z"/><path class="cls-8" d="M807.92,79.74h-7.63V66.89h7.63v2.79h-4.16v2h3.85v2.78h-3.85v2.43h4.16Z"/><path class="cls-8" d="M821.08,73a6.64,6.64,0,0,1-1.78,5,6.79,6.79,0,0,1-5,1.74h-4.16V66.89h4.45a6.71,6.71,0,0,1,4.77,1.58A6,6,0,0,1,821.08,73Zm-3.61.12a4,4,0,0,0-.7-2.61,2.57,2.57,0,0,0-2.12-.86h-1v7.2h.77a2.8,2.8,0,0,0,2.32-.92A4.39,4.39,0,0,0,817.47,73.16Z"/><path class="cls-8" d="M835.27,66.89h3.88l-4.21,12.85h-4.08l-4.19-12.85h3.9l1.75,6.51a19.4,19.4,0,0,1,.59,3c.05-.41.13-.93.25-1.54s.23-1.1.33-1.45Z"/><path class="cls-8" d="M840.54,79.74V66.89H844V79.74Z"/><path class="cls-8" d="M855.21,75.84a3.83,3.83,0,0,1-.6,2.12,4,4,0,0,1-1.75,1.44,6.57,6.57,0,0,1-2.68.51,10.9,10.9,0,0,1-2.16-.18,8.45,8.45,0,0,1-1.81-.62V76a10.19,10.19,0,0,0,2.07.8,7.66,7.66,0,0,0,2,.28,2,2,0,0,0,1.13-.26.83.83,0,0,0,.36-.69.78.78,0,0,0-.15-.47,1.73,1.73,0,0,0-.46-.4,18.49,18.49,0,0,0-1.71-.82,8.1,8.1,0,0,1-1.89-1.11,3.52,3.52,0,0,1-.93-1.23,4.1,4.1,0,0,1-.3-1.64,3.29,3.29,0,0,1,1.29-2.77,5.72,5.72,0,0,1,3.55-1,9.89,9.89,0,0,1,4.07.93l-1.06,2.68a7.73,7.73,0,0,0-3.11-.83,1.64,1.64,0,0,0-1,.24.72.72,0,0,0-.3.59.83.83,0,0,0,.39.67,13.63,13.63,0,0,0,2.12,1.09,6,6,0,0,1,2.31,1.61A3.48,3.48,0,0,1,855.21,75.84Z"/><path class="cls-8" d="M857.2,79.74V66.89h3.49V79.74Z"/><path class="cls-8" d="M863.46,66.89H868a7.63,7.63,0,0,1,3.89.78,2.64,2.64,0,0,1,1.27,2.42,3,3,0,0,1-.56,1.84,2.48,2.48,0,0,1-1.46,1V73a3,3,0,0,1,1.74,1,3.23,3.23,0,0,1,.53,1.92,3.29,3.29,0,0,1-1.31,2.75,5.77,5.77,0,0,1-3.58,1h-5Zm3.48,4.93h1a1.86,1.86,0,0,0,1.16-.31,1.07,1.07,0,0,0,.41-.91c0-.72-.55-1.08-1.64-1.08h-1Zm0,2.54v2.7h1.22c1.08,0,1.62-.46,1.62-1.37a1.19,1.19,0,0,0-.43-1,2,2,0,0,0-1.26-.34Z"/><path class="cls-8" d="M875.59,79.74V66.89h3.49V79.74Z"/><path class="cls-8" d="M881.86,79.74V66.89h3.47v10h4.95v2.8Z"/><path class="cls-8" d="M892.34,79.74V66.89h3.49V79.74Z"/><path class="cls-8" d="M904.27,79.74H900.8v-10h-3.14V66.89h9.74v2.84h-3.13Z"/><path class="cls-8" d="M913.83,71.65,916,66.89h3.76l-4.22,7.83v5h-3.5V74.83l-4.23-7.94h3.78Z"/><path class="cls-8" d="M733.87,94.9a6.94,6.94,0,0,1-1.59,4.93,7.26,7.26,0,0,1-9.3,0,6.93,6.93,0,0,1-1.61-4.94A6.86,6.86,0,0,1,723,90a7.27,7.27,0,0,1,9.31,0A6.94,6.94,0,0,1,733.87,94.9Zm-8.84,0q0,3.72,2.59,3.72a2.25,2.25,0,0,0,2-.9,6.65,6.65,0,0,0,0-5.67,2.22,2.22,0,0,0-1.93-.92Q725,91.13,725,94.9Z"/><path class="cls-8" d="M739.61,101.34h-3.42V88.49h7.59v2.79h-4.17v2.45h3.85v2.78h-3.85Z"/><path class="cls-8" d="M756.24,101.34h-3.47v-10h-3.14V88.49h9.74v2.84h-3.13Z"/><path class="cls-8" d="M764.68,96.66v4.68H761.2V88.49h4.21c3.5,0,5.24,1.26,5.24,3.8a3.78,3.78,0,0,1-2.18,3.45l3.75,5.6h-3.94l-2.73-4.68Zm0-2.61h.65c1.21,0,1.82-.53,1.82-1.61,0-.88-.6-1.32-1.79-1.32h-.68Z"/><path class="cls-8" d="M781.27,101.34l-.63-2.41h-4.18l-.65,2.41H772l4.19-12.9h4.63l4.25,12.9Zm-1.35-5.26L779.36,94c-.13-.47-.28-1.07-.47-1.82s-.3-1.27-.36-1.6c-.06.3-.16.8-.32,1.48s-.49,2-1,4Z"/><path class="cls-8" d="M798.69,101.34h-4.55l-4.7-9h-.08c.12,1.42.17,2.51.17,3.26v5.79h-3.07V88.49H791l4.68,8.93h.05q-.12-2-.12-3.12V88.49h3.09Z"/><path class="cls-8" d="M809.87,97.44a3.76,3.76,0,0,1-.61,2.12,3.87,3.87,0,0,1-1.75,1.44,6.51,6.51,0,0,1-2.68.51,10.86,10.86,0,0,1-2.15-.18,8.45,8.45,0,0,1-1.81-.62v-3.1a10.34,10.34,0,0,0,2.06.8,7.78,7.78,0,0,0,2,.28,2,2,0,0,0,1.14-.26.83.83,0,0,0,.36-.69.78.78,0,0,0-.15-.47,1.73,1.73,0,0,0-.46-.4c-.22-.13-.79-.41-1.71-.82a8.1,8.1,0,0,1-1.89-1.11,3.4,3.4,0,0,1-.93-1.23,4.1,4.1,0,0,1-.3-1.64,3.29,3.29,0,0,1,1.29-2.77,5.7,5.7,0,0,1,3.55-1,9.89,9.89,0,0,1,4.07.93l-1.06,2.68a7.78,7.78,0,0,0-3.12-.83,1.6,1.6,0,0,0-1,.24.7.7,0,0,0-.31.59.83.83,0,0,0,.39.67,13.93,13.93,0,0,0,2.13,1.09,5.93,5.93,0,0,1,2.3,1.61A3.49,3.49,0,0,1,809.87,97.44Z"/><path class="cls-8" d="M819.74,101.34l-.63-2.41h-4.18l-.65,2.41h-3.81l4.19-12.9h4.63l4.25,12.9Zm-1.35-5.26L817.83,94c-.13-.47-.28-1.07-.47-1.82s-.3-1.27-.36-1.6c-.06.3-.16.8-.32,1.48s-.49,2-1,4Z"/><path class="cls-8" d="M830.65,91.15a2.23,2.23,0,0,0-1.94,1A4.91,4.91,0,0,0,828,95q0,3.7,2.82,3.71a5.68,5.68,0,0,0,1.65-.24c.54-.16,1.07-.35,1.61-.57v2.93a8.79,8.79,0,0,1-3.64.71A5.78,5.78,0,0,1,826,99.83,7,7,0,0,1,824.45,95a7.82,7.82,0,0,1,.75-3.51,5.33,5.33,0,0,1,2.16-2.32,6.56,6.56,0,0,1,3.32-.82,9.17,9.17,0,0,1,4,.91l-1.06,2.73a11.94,11.94,0,0,0-1.42-.56A5.1,5.1,0,0,0,830.65,91.15Z"/><path class="cls-8" d="M842.27,101.34H838.8v-10h-3.13V88.49h9.73v2.84h-3.13Z"/><path class="cls-8" d="M847.24,101.34V88.49h3.49v12.85Z"/><path class="cls-8" d="M865.53,94.9a6.94,6.94,0,0,1-1.59,4.93,7.26,7.26,0,0,1-9.3,0A6.93,6.93,0,0,1,853,94.88a6.86,6.86,0,0,1,1.61-4.9A7.27,7.27,0,0,1,864,90,6.94,6.94,0,0,1,865.53,94.9Zm-8.84,0q0,3.72,2.59,3.72a2.25,2.25,0,0,0,2-.9,6.65,6.65,0,0,0,0-5.67,2.22,2.22,0,0,0-1.93-.92Q856.69,91.13,856.69,94.9Z"/><path class="cls-8" d="M880.08,101.34h-4.55l-4.69-9h-.08c.11,1.42.17,2.51.17,3.26v5.79h-3.08V88.49h4.54l4.67,8.93h.05q-.12-2-.12-3.12V88.49h3.09Z"/><path class="cls-8" d="M891.26,97.44a3.83,3.83,0,0,1-.6,2.12,4,4,0,0,1-1.75,1.44,6.54,6.54,0,0,1-2.68.51,10.79,10.79,0,0,1-2.15-.18,8.52,8.52,0,0,1-1.82-.62v-3.1a10.67,10.67,0,0,0,2.07.8,7.66,7.66,0,0,0,2,.28,2,2,0,0,0,1.13-.26.83.83,0,0,0,.36-.69.84.84,0,0,0-.14-.47,1.8,1.8,0,0,0-.47-.4,18.49,18.49,0,0,0-1.71-.82,8,8,0,0,1-1.88-1.11,3.4,3.4,0,0,1-.93-1.23,3.93,3.93,0,0,1-.31-1.64,3.29,3.29,0,0,1,1.29-2.77,5.75,5.75,0,0,1,3.56-1,9.85,9.85,0,0,1,4.06.93l-1.06,2.68a7.73,7.73,0,0,0-3.11-.83,1.58,1.58,0,0,0-1,.24.7.7,0,0,0-.31.59.83.83,0,0,0,.39.67,14.16,14.16,0,0,0,2.12,1.09,5.9,5.9,0,0,1,2.31,1.61A3.48,3.48,0,0,1,891.26,97.44Z"/><path class="cls-8" d="M57.75,22.21H50.12V9.36h7.63v2.79H53.6v2h3.85V17H53.6v2.43h4.15Z"/><path class="cls-8" d="M67.89,22.21l-.64-2.41H63.08l-.65,2.41H58.61l4.2-12.9h4.63l4.24,12.9ZM66.53,17,66,14.84c-.13-.46-.29-1.07-.47-1.81s-.31-1.28-.37-1.6c0,.29-.15.79-.31,1.47s-.5,2-1,4Z"/><path class="cls-8" d="M81.47,18.31a3.83,3.83,0,0,1-.6,2.12,4,4,0,0,1-1.75,1.44,6.54,6.54,0,0,1-2.68.52,10.79,10.79,0,0,1-2.15-.18,8.06,8.06,0,0,1-1.82-.63v-3.1a10.67,10.67,0,0,0,2.07.8,7.66,7.66,0,0,0,2,.28,1.91,1.91,0,0,0,1.13-.26.83.83,0,0,0,.36-.69.78.78,0,0,0-.14-.46,1.49,1.49,0,0,0-.47-.4,15.32,15.32,0,0,0-1.71-.83,8,8,0,0,1-1.88-1.11,3.4,3.4,0,0,1-.93-1.23,3.93,3.93,0,0,1-.31-1.64,3.29,3.29,0,0,1,1.29-2.77,5.75,5.75,0,0,1,3.56-1,9.83,9.83,0,0,1,4.06.92l-1.06,2.68A7.73,7.73,0,0,0,77.3,12a1.58,1.58,0,0,0-1,.24.7.7,0,0,0-.31.59.86.86,0,0,0,.39.68,15.25,15.25,0,0,0,2.12,1.09,5.79,5.79,0,0,1,2.31,1.6A3.48,3.48,0,0,1,81.47,18.31Z"/><path class="cls-8" d="M88.05,14.12l2.21-4.76H94L89.8,17.19v5H86.3V17.3L82.07,9.36h3.78Z"/><path class="cls-8" d="M108,22.21l-.63-2.41h-4.17l-.65,2.41H98.7l4.19-12.9h4.64l4.24,12.9ZM106.62,17l-.55-2.11c-.13-.46-.29-1.07-.47-1.81s-.31-1.28-.37-1.6c0,.29-.16.79-.31,1.47s-.5,2-1,4Z"/><path class="cls-8" d="M118.88,12A2.2,2.2,0,0,0,117,13a4.85,4.85,0,0,0-.7,2.8q0,3.7,2.82,3.71a5.8,5.8,0,0,0,1.66-.24c.53-.16,1.07-.35,1.6-.57v2.93a8.78,8.78,0,0,1-3.63.72,5.77,5.77,0,0,1-4.46-1.69,6.94,6.94,0,0,1-1.56-4.88,7.82,7.82,0,0,1,.76-3.51A5.39,5.39,0,0,1,115.6,10a6.53,6.53,0,0,1,3.32-.81,9.22,9.22,0,0,1,4,.9l-1.07,2.73a11.94,11.94,0,0,0-1.42-.56A5,5,0,0,0,118.88,12Z"/><path class="cls-8" d="M130.56,12a2.21,2.21,0,0,0-1.93,1,4.93,4.93,0,0,0-.7,2.8q0,3.7,2.82,3.71a5.8,5.8,0,0,0,1.66-.24c.53-.16,1.07-.35,1.61-.57v2.93a8.86,8.86,0,0,1-3.64.72,5.77,5.77,0,0,1-4.46-1.69,6.94,6.94,0,0,1-1.55-4.88,7.82,7.82,0,0,1,.75-3.51A5.39,5.39,0,0,1,127.28,10a6.56,6.56,0,0,1,3.32-.81,9.19,9.19,0,0,1,4,.9l-1.07,2.73a11.3,11.3,0,0,0-1.42-.56A5,5,0,0,0,130.56,12Z"/><path class="cls-8" d="M144.15,22.21h-7.63V9.36h7.63v2.79H140v2h3.85V17H140v2.43h4.16Z"/><path class="cls-8" d="M154.8,18.31a3.83,3.83,0,0,1-.6,2.12,4,4,0,0,1-1.75,1.44,6.57,6.57,0,0,1-2.68.52,10.9,10.9,0,0,1-2.16-.18,8,8,0,0,1-1.81-.63v-3.1a10.19,10.19,0,0,0,2.07.8,7.66,7.66,0,0,0,2,.28A1.91,1.91,0,0,0,151,19.3a.83.83,0,0,0,.36-.69.78.78,0,0,0-.14-.46,1.61,1.61,0,0,0-.47-.4,15.32,15.32,0,0,0-1.71-.83,8.1,8.1,0,0,1-1.89-1.11,3.65,3.65,0,0,1-.93-1.23,4.1,4.1,0,0,1-.3-1.64,3.29,3.29,0,0,1,1.29-2.77,5.71,5.71,0,0,1,3.55-1,9.88,9.88,0,0,1,4.07.92l-1.06,2.68a7.73,7.73,0,0,0-3.11-.83,1.64,1.64,0,0,0-1,.24.73.73,0,0,0-.31.59.87.87,0,0,0,.4.68,14.63,14.63,0,0,0,2.12,1.09,5.79,5.79,0,0,1,2.31,1.6A3.48,3.48,0,0,1,154.8,18.31Z"/><path class="cls-8" d="M165.19,18.31a3.76,3.76,0,0,1-.61,2.12,3.87,3.87,0,0,1-1.75,1.44,6.5,6.5,0,0,1-2.68.52,10.86,10.86,0,0,1-2.15-.18,8,8,0,0,1-1.81-.63v-3.1a10.19,10.19,0,0,0,2.07.8,7.65,7.65,0,0,0,2,.28,1.92,1.92,0,0,0,1.14-.26.83.83,0,0,0,.36-.69.73.73,0,0,0-.15-.46,1.44,1.44,0,0,0-.46-.4,17.53,17.53,0,0,0-1.71-.83,8.1,8.1,0,0,1-1.89-1.11,3.4,3.4,0,0,1-.93-1.23,4.1,4.1,0,0,1-.3-1.64,3.29,3.29,0,0,1,1.29-2.77,5.71,5.71,0,0,1,3.55-1,9.88,9.88,0,0,1,4.07.92l-1.06,2.68A7.73,7.73,0,0,0,161,12a1.62,1.62,0,0,0-1,.24.73.73,0,0,0-.31.59.86.86,0,0,0,.39.68,15.62,15.62,0,0,0,2.13,1.09,5.82,5.82,0,0,1,2.3,1.6A3.43,3.43,0,0,1,165.19,18.31Z"/><path class="cls-8" d="M177.52,22.21h-3.47v-10h-3.14V9.36h9.74V12.2h-3.13Z"/><path class="cls-8" d="M194.51,15.77a6.94,6.94,0,0,1-1.59,4.93,7.21,7.21,0,0,1-9.29,0A6.89,6.89,0,0,1,182,15.75a6.86,6.86,0,0,1,1.61-4.9,7.27,7.27,0,0,1,9.31,0A7,7,0,0,1,194.51,15.77Zm-8.84,0q0,3.72,2.59,3.72a2.25,2.25,0,0,0,2-.9,5,5,0,0,0,.63-2.82,5,5,0,0,0-.64-2.85,2.21,2.21,0,0,0-1.93-.91Q185.67,12,185.67,15.77Z"/><path class="cls-8" d="M207.18,22.21H203.7v-10h-3.13V9.36h9.73V12.2h-3.12Z"/><path class="cls-8" d="M223.15,22.21h-3.48V17h-4v5.24h-3.49V9.36h3.49v4.76h4V9.36h3.48Z"/><path class="cls-8" d="M233.56,22.21h-7.63V9.36h7.63v2.79H229.4v2h3.85V17H229.4v2.43h4.16Z"/><path class="cls-8" d="M4.86,39.13v4.68H1.39V31H5.6q5.24,0,5.24,3.8a3.79,3.79,0,0,1-2.18,3.45l3.74,5.6H8.46L5.74,39.13Zm0-2.61h.65c1.21,0,1.82-.53,1.82-1.6,0-.89-.59-1.33-1.78-1.33H4.86Z"/><path class="cls-8" d="M21.2,43.81H13.57V31H21.2v2.79H17v2h3.85v2.78H17V41H21.2Z"/><path class="cls-8" d="M31.33,43.81,30.7,41.4H26.53l-.65,2.41H22.06l4.19-12.9h4.63l4.25,12.9ZM30,38.55l-.55-2.11c-.13-.46-.29-1.07-.47-1.81s-.31-1.28-.37-1.6c-.05.29-.16.79-.31,1.47s-.5,2-1,4Z"/><path class="cls-8" d="M36.52,43.81V31H40V41h4.95v2.8Z"/><path class="cls-8" d="M46,40.36V37.61h5v2.75Z"/><path class="cls-8" d="M58.39,43.81H54.91v-10H51.78V31h9.73V33.8H58.39Z"/><path class="cls-8" d="M63.35,43.81V31h3.49V43.81Z"/><path class="cls-8" d="M75.22,43.81l-2.63-9.25h-.08c.12,1.57.18,2.8.18,3.67v5.58H69.62V31h4.62l2.68,9.12H77L79.62,31h4.63V43.81H81.06V38.18c0-.3,0-.62,0-1s.05-1.23.12-2.63h-.08l-2.59,9.24Z"/><path class="cls-8" d="M94.65,43.81H87V31h7.63v2.79H90.49v2h3.85v2.78H90.49V41h4.16Z"/><path class="cls-8" d="M101.58,43.81V31h3.48V43.81Z"/><path class="cls-8" d="M120.08,43.81h-4.56l-4.69-9.05h-.08c.11,1.42.17,2.51.17,3.26v5.79h-3.08V31h4.54l4.67,8.93h.06c-.09-1.29-.13-2.33-.13-3.12V31h3.1Z"/><path class="cls-8" d="M126.27,43.81h-3.42V31h7.6v2.79h-4.18V36.2h3.85V39h-3.85Z"/><path class="cls-8" d="M144.58,37.37A6.94,6.94,0,0,1,143,42.3a7.23,7.23,0,0,1-9.3,0,6.93,6.93,0,0,1-1.61-4.94,6.86,6.86,0,0,1,1.61-4.9,7.27,7.27,0,0,1,9.31,0A7,7,0,0,1,144.58,37.37Zm-8.84,0q0,3.72,2.59,3.72a2.25,2.25,0,0,0,2-.9,5,5,0,0,0,.63-2.82,5,5,0,0,0-.64-2.85,2.21,2.21,0,0,0-1.93-.91Q135.74,33.61,135.74,37.37Z"/><path class="cls-8" d="M150.37,39.13v4.68H146.9V31h4.21q5.23,0,5.24,3.8a3.79,3.79,0,0,1-2.18,3.45l3.74,5.6H154l-2.73-4.68Zm0-2.61H151c1.22,0,1.82-.53,1.82-1.6,0-.89-.59-1.33-1.78-1.33h-.69Z"/><path class="cls-8" d="M164.68,43.81l-2.63-9.25H162c.13,1.57.19,2.8.19,3.67v5.58h-3.08V31h4.63l2.68,9.12h.07L169.08,31h4.64V43.81h-3.19V38.18c0-.3,0-.62,0-1s.05-1.23.12-2.63h-.08L168,43.81Z"/><path class="cls-8" d="M184.37,43.81l-.63-2.41h-4.18l-.65,2.41H175.1l4.19-12.9h4.63l4.25,12.9ZM183,38.55l-.55-2.11c-.13-.46-.28-1.07-.47-1.81s-.31-1.28-.36-1.6c-.06.29-.16.79-.32,1.47s-.5,2-1,4Z"/><path class="cls-8" d="M195.22,43.81h-3.47v-10h-3.14V31h9.74V33.8h-3.13Z"/><path class="cls-8" d="M200.19,43.81V31h3.49V43.81Z"/><path class="cls-8" d="M218.48,37.37a6.94,6.94,0,0,1-1.59,4.93,7.23,7.23,0,0,1-9.3,0A6.93,6.93,0,0,1,206,37.35a6.9,6.9,0,0,1,1.6-4.9,7.29,7.29,0,0,1,9.32,0A7,7,0,0,1,218.48,37.37Zm-8.84,0q0,3.72,2.59,3.72a2.25,2.25,0,0,0,2-.9,5,5,0,0,0,.63-2.82,5,5,0,0,0-.64-2.85,2.21,2.21,0,0,0-1.93-.91Q209.64,33.61,209.64,37.37Z"/><path class="cls-8" d="M233,43.81h-4.55l-4.69-9.05h-.08c.11,1.42.17,2.51.17,3.26v5.79H220.8V31h4.53L230,39.89h.05q-.12-1.94-.12-3.12V31H233Z"/><path class="cls-8" d="M83.84,243.16V230.31h3.49v12.85Z"/><path class="cls-8" d="M95.71,243.16l-2.63-9.25H93c.12,1.57.19,2.8.19,3.67v5.58H90.11V230.31h4.62l2.68,9.13h.07l2.63-9.13h4.63v12.85h-3.19v-5.63c0-.29,0-.62,0-1s0-1.23.12-2.62h-.08L99,243.16Z"/><path class="cls-8" d="M116.84,234.4a4.33,4.33,0,0,1-1.27,3.33A5.14,5.14,0,0,1,112,238.9h-1v4.26h-3.47V230.31H112a5.46,5.46,0,0,1,3.66,1.07A3.8,3.8,0,0,1,116.84,234.4ZM111,236.07h.64a1.74,1.74,0,0,0,1.24-.44,1.58,1.58,0,0,0,.46-1.21c0-.87-.48-1.3-1.44-1.3H111Z"/><path class="cls-8" d="M122.36,238.49v4.67h-3.47V230.31h4.21q5.24,0,5.23,3.8a3.77,3.77,0,0,1-2.18,3.45l3.75,5.6H126l-2.72-4.67Zm0-2.61H123c1.21,0,1.82-.54,1.82-1.61,0-.89-.6-1.33-1.79-1.33h-.68Z"/><path class="cls-8" d="M143.09,236.72a6.93,6.93,0,0,1-1.59,4.93,7.21,7.21,0,0,1-9.29,0,8.3,8.3,0,0,1,0-9.84,7.27,7.27,0,0,1,9.31,0A7,7,0,0,1,143.09,236.72Zm-8.84,0q0,3.74,2.59,3.73a2.23,2.23,0,0,0,2-.91,6.62,6.62,0,0,0,0-5.66,2.22,2.22,0,0,0-1.93-.92Q134.25,233,134.25,236.72Z"/><path class="cls-8" d="M152.63,230.31h3.88l-4.21,12.85h-4.09L144,230.31h3.9l1.75,6.52a18.34,18.34,0,0,1,.6,3,14.55,14.55,0,0,1,.25-1.54c.12-.61.23-1.1.32-1.45Z"/><path class="cls-8" d="M165.53,243.16H157.9V230.31h7.63v2.79h-4.16v2h3.85v2.79h-3.85v2.42h4.16Z"/><path class="cls-8" d="M178.69,236.47a6.63,6.63,0,0,1-1.77,4.95,6.83,6.83,0,0,1-5,1.74h-4.16V230.31h4.45A6.67,6.67,0,0,1,177,231.9,5.93,5.93,0,0,1,178.69,236.47Zm-3.61.12a4.06,4.06,0,0,0-.7-2.62,2.56,2.56,0,0,0-2.12-.85h-1v7.2H172a2.8,2.8,0,0,0,2.32-.92A4.39,4.39,0,0,0,175.08,236.59Z"/><path class="cls-8" d="M32.12,251.91v7.74a5.18,5.18,0,0,1-1.43,3.9,5.64,5.64,0,0,1-4.12,1.39,5.59,5.59,0,0,1-4-1.35,5,5,0,0,1-1.42-3.86v-7.82h3.49v7.55a3.08,3.08,0,0,0,.51,2,1.85,1.85,0,0,0,1.51.62,1.86,1.86,0,0,0,1.54-.61,3.29,3.29,0,0,0,.48-2v-7.53Z"/><path class="cls-8" d="M43.22,260.86a3.71,3.71,0,0,1-.61,2.12,3.87,3.87,0,0,1-1.75,1.44,6.34,6.34,0,0,1-2.68.52,10.86,10.86,0,0,1-2.15-.18,8,8,0,0,1-1.81-.63V261a10.16,10.16,0,0,0,2.07.79,7.69,7.69,0,0,0,2,.29,1.91,1.91,0,0,0,1.14-.27.83.83,0,0,0,.36-.69.73.73,0,0,0-.15-.46,1.57,1.57,0,0,0-.46-.4c-.22-.14-.79-.41-1.71-.83a8.49,8.49,0,0,1-1.89-1.1,3.35,3.35,0,0,1-.93-1.24,4.1,4.1,0,0,1-.3-1.64,3.3,3.3,0,0,1,1.29-2.77,5.71,5.71,0,0,1,3.55-1,10,10,0,0,1,4.07.92l-1.06,2.68a7.7,7.7,0,0,0-3.11-.82,1.7,1.7,0,0,0-1,.23.74.74,0,0,0-.31.59.86.86,0,0,0,.39.68,15.62,15.62,0,0,0,2.13,1.09,5.92,5.92,0,0,1,2.3,1.6A3.49,3.49,0,0,1,43.22,260.86Z"/><path class="cls-8" d="M52.84,264.76H45.21V251.91h7.63v2.79H48.68v2h3.85v2.79H48.68v2.42h4.16Z"/><path class="cls-8" d="M58.56,260.09v4.67H55.09V251.91H59.3q5.24,0,5.23,3.8a3.79,3.79,0,0,1-2.18,3.46l3.75,5.59H62.16l-2.72-4.67Zm0-2.61h.65c1.21,0,1.82-.54,1.82-1.61,0-.89-.6-1.33-1.79-1.33h-.68Z"/><path class="cls-8" d="M79.57,264.76H71.94V251.91h7.63v2.79H75.41v2h3.85v2.79H75.41v2.42h4.16Z"/><path class="cls-8" d="M93.4,264.76h-4l-2.5-4-2.48,4H80.47l4.26-6.57-4-6.28h3.85l2.32,4,2.24-4h4L89,258.46Z"/><path class="cls-8" d="M104.16,256a4.3,4.3,0,0,1-1.27,3.33,5.11,5.11,0,0,1-3.6,1.17h-1v4.26H94.84V251.91h4.45a5.41,5.41,0,0,1,3.65,1.07A3.76,3.76,0,0,1,104.16,256Zm-5.85,1.67h.63a1.76,1.76,0,0,0,1.25-.44,1.62,1.62,0,0,0,.46-1.21c0-.87-.48-1.3-1.44-1.3h-.9Z"/><path class="cls-8" d="M113.84,264.76h-7.63V251.91h7.63v2.79h-4.16v2h3.85v2.79h-3.85v2.42h4.16Z"/><path class="cls-8" d="M119.56,260.09v4.67h-3.47V251.91h4.21q5.24,0,5.24,3.8a3.81,3.81,0,0,1-2.18,3.46l3.74,5.59h-3.93l-2.73-4.67Zm0-2.61h.65c1.22,0,1.82-.54,1.82-1.61,0-.89-.59-1.33-1.78-1.33h-.69Z"/><path class="cls-8" d="M128.27,264.76V251.91h3.49v12.85Z"/><path class="cls-8" d="M142.17,264.76h-7.63V251.91h7.63v2.79H138v2h3.85v2.79H138v2.42h4.16Z"/><path class="cls-8" d="M156.65,264.76H152.1l-4.69-9h-.08c.11,1.42.16,2.51.16,3.26v5.79h-3.07V251.91H149l4.68,8.93h.05q-.12-1.93-.12-3.12v-5.81h3.09Z"/><path class="cls-8" d="M165.15,254.58a2.21,2.21,0,0,0-1.93,1,4.85,4.85,0,0,0-.7,2.8q0,3.71,2.82,3.71a5.8,5.8,0,0,0,1.66-.24,14.59,14.59,0,0,0,1.6-.57v2.94a8.94,8.94,0,0,1-3.63.71,5.73,5.73,0,0,1-4.46-1.69,6.93,6.93,0,0,1-1.56-4.88,7.77,7.77,0,0,1,.76-3.5,5.36,5.36,0,0,1,2.16-2.33,6.53,6.53,0,0,1,3.32-.81,9.22,9.22,0,0,1,4,.9l-1.07,2.74a11.94,11.94,0,0,0-1.42-.56A4.72,4.72,0,0,0,165.15,254.58Z"/><path class="cls-8" d="M178.74,264.76h-7.63V251.91h7.63v2.79h-4.16v2h3.85v2.79h-3.85v2.42h4.16Z"/><circle class="cls-14" cx="285.85" cy="74.88" r="45"/><circle class="cls-5" cx="743.5" cy="190.11" r="45"/><circle class="cls-7" cx="227.73" cy="212.56" r="37.5"/><circle class="cls-10" cx="674.05" cy="43.43" r="37.5"/><rect class="cls-15" x="218.13" y="147.64" width="24.25" height="5.03"/><rect class="cls-15" x="166.87" y="107.03" width="24.25" height="5.03"/><rect class="cls-15" x="166.87" y="161.48" width="24.25" height="5.03"/><rect class="cls-16" x="166.87" y="120.18" width="43.59" height="5.03"/><rect class="cls-16" x="166.87" y="147.64" width="43.59" height="5.03"/><rect class="cls-15" x="166.87" y="133.91" width="91.75" height="5.03"/><rect class="cls-16" x="859.33" y="178.82" width="24.25" height="5.03"/><rect class="cls-15" x="808.07" y="138.32" width="24.25" height="5.03"/><rect class="cls-15" x="808.07" y="192.77" width="24.25" height="5.03"/><rect class="cls-16" x="808.07" y="151.47" width="43.59" height="5.03"/><rect class="cls-15" x="808.07" y="178.82" width="43.59" height="5.03"/><rect class="cls-16" x="808.07" y="165.2" width="91.75" height="5.03"/><rect class="cls-15" x="485.76" y="283.97" width="24.25" height="5.03"/><rect class="cls-15" x="434.51" y="243.47" width="24.25" height="5.03"/><rect class="cls-16" x="434.51" y="283.97" width="24.25" height="5.03"/><rect class="cls-15" x="434.51" y="256.62" width="43.59" height="5.03"/><rect class="cls-16" x="434.51" y="270.35" width="91.75" height="5.03"/><rect class="cls-15" x="91.83" y="103.48" width="4.58" height="17.16"/><rect class="cls-15" x="85.54" y="109.77" width="17.16" height="4.58"/><rect class="cls-15" x="288.08" width="4.58" height="17.16"/><rect class="cls-15" x="281.79" y="6.29" width="17.16" height="4.58"/><rect class="cls-15" x="759.65" width="4.58" height="17.16"/><rect class="cls-15" x="753.36" y="6.29" width="17.16" height="4.58"/><rect class="cls-15" x="715.21" y="249.65" width="4.58" height="17.16"/><rect class="cls-15" x="708.92" y="255.94" width="17.16" height="4.58"/><path class="cls-2" d="M238,199.26h-2.23a1.12,1.12,0,0,0,0,2.23H238a1.12,1.12,0,1,0,0-2.23Z"/><path class="cls-2" d="M226.72,195.41l-1.11-2.23a1.12,1.12,0,1,0-2,1l1.12,2.23a1.11,1.11,0,1,0,2-1Z"/><path class="cls-2" d="M234,192.68a1.13,1.13,0,0,0-1.5.5l-1.11,2.23a1.11,1.11,0,1,0,2,1l1.12-2.23A1.12,1.12,0,0,0,234,192.68Z"/><path class="cls-2" d="M222.38,199.26h-2.23a1.12,1.12,0,1,0,0,2.23h2.23a1.12,1.12,0,0,0,0-2.23Z"/><path class="cls-2" d="M243.55,213.44a3.5,3.5,0,0,0-3.55-2.95h-8.7c.74-1.33,1.13-5.07,1.12-6.6a4.65,4.65,0,0,0-4.66-4.56h-.92a1.12,1.12,0,0,0-1.12,1.12c0,2.58-1,7.23-2.89,9.13A12.63,12.63,0,0,1,219,212v16.73a26.07,26.07,0,0,0,9.2,1.8h7.3a3.39,3.39,0,0,0,3.34-4.58,3.34,3.34,0,0,0,2.47-3.22,3.41,3.41,0,0,0-.23-1.24,3.35,3.35,0,0,0,1.61-5.46A3.35,3.35,0,0,0,243.55,213.44Z"/><path class="cls-5" d="M218.06,210.49H213a1.2,1.2,0,0,0-1.27,1.11v17.85a1.2,1.2,0,0,0,1.27,1.11h5.09a1.2,1.2,0,0,0,1.27-1.11V211.6A1.2,1.2,0,0,0,218.06,210.49Z"/><circle class="cls-14" cx="215.52" cy="214.95" r="1.76"/><path class="cls-10" d="M745.33,169.58v15.25a2.5,2.5,0,0,1-2.47,2.47H729.78l-9.69,5v-5h-.82a2.5,2.5,0,0,1-2.47-2.47V169.58a2.5,2.5,0,0,1,2.47-2.47H743A2.42,2.42,0,0,1,745.33,169.58Z"/><circle class="cls-2" cx="723.49" cy="177.2" r="2.68"/><circle class="cls-2" cx="731.12" cy="177.2" r="2.68"/><circle class="cls-2" cx="738.74" cy="177.2" r="2.68"/><path class="cls-7" d="M741.67,184.63v15.14a2.5,2.5,0,0,0,2.47,2.47h13.19l9.68,5v-5h.72a2.5,2.5,0,0,0,2.47-2.47V184.63a2.51,2.51,0,0,0-2.47-2.48H744A2.43,2.43,0,0,0,741.67,184.63Z"/><circle class="cls-2" cx="763.51" cy="192.25" r="2.68"/><circle class="cls-2" cx="755.88" cy="192.25" r="2.68"/><circle class="cls-2" cx="748.26" cy="192.25" r="2.68"/><path class="cls-2" d="M745.16,212.57l-2.31.79a.83.83,0,0,0-.43.44l-.94,2.31-.87-2.31a.88.88,0,0,0-.43-.44l-2.31-.93,2.31-.87a.86.86,0,0,0,.43-.43l.94-2.31.87,2.31a.82.82,0,0,0,.43.43Z"/><path class="cls-2" d="M736.8,206.91,733.68,208a1.09,1.09,0,0,0-.58.58l-1.27,3.11-1.17-3.11a1.06,1.06,0,0,0-.58-.58L727,206.72l3.11-1.17a1.13,1.13,0,0,0,.58-.58l1.27-3.12L733.1,205a1.17,1.17,0,0,0,.58.58Z"/><path class="cls-10" d="M285.85,47.38a27.54,27.54,0,0,0-27.5,27.5h4.5A23,23,0,1,1,273,94l-2.56-1.79,5.61-.39-.31-4.48-13.33.92.92,13.33,4.49-.31-.39-5.68,3,2.1,0,0a27.5,27.5,0,1,0,15.38-50.31Z"/><path class="cls-7" d="M313.35,74.88a27.54,27.54,0,0,0-27.48-27.5v4.5a23,23,0,0,1,0,46v4.49a27.53,27.53,0,0,0,27.48-27.5Z"/><path class="cls-2" d="M270.34,83.25V79.59c7.9-5.71,9.38-7,9.38-8.77,0-1.26-1.18-1.92-2.52-1.92a6.8,6.8,0,0,0-4.86,2l-2.6-3.12a10.06,10.06,0,0,1,7.38-3c4.29,0,7.38,2.4,7.38,6.07,0,2.78-2,5.16-6.53,8.33h6.67v4.1Z"/><path class="cls-2" d="M295.05,83.25V79.92h-8.72V76.25L293.24,65h6.53V75.79H302v4.13h-2.22v3.33Zm0-14.13-4.16,6.67h4.16Z"/><path class="cls-14" d="M693.57,63.93H673a2.24,2.24,0,0,1-2.24-2.24v-10A2.25,2.25,0,0,1,673,49.46h20.59a2.24,2.24,0,0,1,2.24,2.25v10A2.24,2.24,0,0,1,693.57,63.93Z"/><path class="cls-5" d="M695.81,52.36H670.74V48.81A2.24,2.24,0,0,1,673,46.57h20.59a2.24,2.24,0,0,1,2.24,2.24v3.55Z"/><path class="cls-2" d="M678.46,60.07H674.6a1,1,0,1,1,0-1.93h3.86a1,1,0,0,1,0,1.93Z"/><path class="cls-2" d="M692,60.07H688.1a1,1,0,0,1,0-1.93H692a1,1,0,0,1,0,1.93Z"/><path class="cls-2" d="M684.24,60.07h-1.93a1,1,0,0,1,0-1.93h1.93a1,1,0,1,1,0,1.93Z"/><path class="cls-2" d="M683.28,42.71a1,1,0,0,1-1-1V33.07a1,1,0,1,1,1.93,0v8.68A1,1,0,0,1,683.28,42.71Z"/><path class="cls-2" d="M683.28,42.71a.93.93,0,0,1-.68-.28,1,1,0,0,1,0-1.36l2.89-2.9a1,1,0,1,1,1.36,1.37L684,42.43A1,1,0,0,1,683.28,42.71Z"/><path class="cls-2" d="M683.28,42.71a.93.93,0,0,1-.68-.28l-2.9-2.89a1,1,0,1,1,1.37-1.37l2.89,2.9a1,1,0,0,1-.68,1.64Z"/><path class="cls-2" d="M662,57.63a1,1,0,0,1-1-1V48A1,1,0,1,1,663,48v8.68A1,1,0,0,1,662,57.63Z"/><path class="cls-2" d="M659.13,51.85a.94.94,0,0,1-.68-.29,1,1,0,0,1,0-1.36l2.89-2.89a1,1,0,0,1,1.36,1.36l-2.89,2.89A1,1,0,0,1,659.13,51.85Z"/><path class="cls-2" d="M664.91,51.85a1,1,0,0,1-.68-.29l-2.89-2.89a1,1,0,1,1,1.36-1.36l2.89,2.89a1,1,0,0,1,0,1.36A.94.94,0,0,1,664.91,51.85Z"/><circle class="cls-7" cx="662.02" cy="32.66" r="9.73"/><path class="cls-2" d="M661.36,36.93a7.62,7.62,0,0,1-2.77-.64V34.11a9,9,0,0,0,1.65.64,5.51,5.51,0,0,0,1.58.26,1.83,1.83,0,0,0,.81-.13.5.5,0,0,0,.08-.82,3.36,3.36,0,0,0-.63-.34c-.29-.13-.68-.28-1.18-.46a5.46,5.46,0,0,1-1.35-.7,2.29,2.29,0,0,1-.74-.86,2.61,2.61,0,0,1-.24-1.18,2.16,2.16,0,0,1,.7-1.7,3.72,3.72,0,0,1,2.09-.76v-.9h1.36v.89a7.73,7.73,0,0,1,2.64.64l-.78,1.88A6.18,6.18,0,0,0,662.1,30a1.48,1.48,0,0,0-.74.13.42.42,0,0,0-.22.38.46.46,0,0,0,.16.35,2,2,0,0,0,.54.32,9.59,9.59,0,0,0,1,.4,5.26,5.26,0,0,1,2,1.11,2.22,2.22,0,0,1,.6,1.6,2.44,2.44,0,0,1-.7,1.8,3.44,3.44,0,0,1-2,.86v1.26h-1.36Z"/><circle class="cls-15" cx="378.42" cy="245" r="45"/><path class="cls-2" d="M361.64,231.77,348.42,245l13.22,13.23,3.71-3.71L355.84,245l9.51-9.52Z"/><path class="cls-2" d="M391.48,235.48,401,245l-9.52,9.52,3.71,3.71L408.42,245l-13.23-13.23Z"/><path class="cls-2" d="M369.87,253.55l12.58-21,4.52,2.74-12.58,21Z"/></svg>